<svg width="20" height="20" viewBox="0 0 20 20" fill="none" xmlns="http://www.w3.org/2000/svg">
<path d="M10.2156 14.9828C10.0961 15.1023 9.90234 15.1023 9.78284 14.9828L6.46589 11.6659C6.13946 11.3395 5.60992 11.3404 5.28464 11.668C4.96099 11.9939 4.96192 12.5203 5.28672 12.8451L9.03279 16.5911C9.56654 17.1249 10.4319 17.1249 10.9656 16.5911L14.7117 12.8451C15.0365 12.5203 15.0375 11.9939 14.7138 11.668C14.3885 11.3404 13.859 11.3395 13.5325 11.6659L10.2156 14.9828Z" fill="white"/>
<path d="M5.28672 7.1539C4.96192 7.47871 4.96099 8.00503 5.28464 8.33098C5.60992 8.65857 6.13946 8.6595 6.46589 8.33307L9.88177 4.91719C9.94663 4.85233 10.0518 4.85233 10.1167 4.91719L13.5325 8.33307C13.859 8.6595 14.3885 8.65857 14.7138 8.33098C15.0375 8.00503 15.0365 7.47871 14.7117 7.1539L10.5589 3.00107C10.2498 2.69198 9.74865 2.69197 9.43956 3.00107L5.28672 7.1539Z" fill="#3382F9"/>
</svg>
