<svg width="24" height="24" viewBox="0 0 24 24" fill="none" xmlns="http://www.w3.org/2000/svg">
<path d="M21.406 6.08626L12.406 2.08625C12.278 2.02938 12.1395 2 11.9995 2C11.8595 2 11.721 2.02938 11.593 2.08625L2.593 6.08626C2.573 6.09525 2.559 6.11025 2.539 6.12125C2.511 6.13525 2.481 6.14425 2.455 6.16125C2.433 6.17625 2.416 6.19526 2.395 6.21126C2.3219 6.26558 2.25779 6.33104 2.205 6.40526C2.185 6.43326 2.164 6.45825 2.146 6.48625C2.11624 6.5391 2.09082 6.59429 2.07 6.65125C2.061 6.67825 2.047 6.70326 2.039 6.73026C2.01389 6.81809 2.00077 6.90891 2 7.00025V17.0003C2 17.3963 2.232 17.7533 2.594 17.9143L11.594 21.9143C11.724 21.9723 11.862 22.0003 12 22.0003C12.1392 21.9967 12.2762 21.964 12.402 21.9043L12.406 21.9143L21.406 17.9143C21.5829 17.8358 21.7332 17.7077 21.8386 17.5454C21.9441 17.3832 22.0002 17.1938 22 17.0003V7.00025C22.0002 6.80674 21.9441 6.61735 21.8386 6.4551C21.7332 6.29284 21.5829 6.16471 21.406 6.08626ZM12 4.09525L18.538 7.00025L12 9.90525L10.692 9.32425L5.463 7.00025L12 4.09525ZM4 16.3513V8.53925L11 11.6503V19.4613L4 16.3513ZM13 19.4613V11.6503L20 8.53925V16.3513L13 19.4613Z" fill="white"/>
</svg>
