<svg width="24" height="24" viewBox="0 0 24 24" fill="none" xmlns="http://www.w3.org/2000/svg">
<g clip-path="url(#clip0_7166_540)">
<path d="M20.4073 16.347C19.3361 15.1864 18.0361 14.2601 16.5893 13.6266C15.1424 12.9931 13.5801 12.666 12.0007 12.666C10.4212 12.666 8.85885 12.9931 7.41202 13.6266C5.96519 14.2601 4.66522 15.1864 3.59398 16.347C3.4286 16.5299 3.33608 16.7672 3.33398 17.0137V21.0137C3.33749 21.2766 3.44439 21.5276 3.63155 21.7122C3.81871 21.8969 4.07106 22.0004 4.33398 22.0004H19.6673C19.9325 22.0004 20.1869 21.895 20.3744 21.7075C20.562 21.52 20.6673 21.2656 20.6673 21.0004V17.0004C20.662 16.7584 20.5697 16.5265 20.4073 16.347Z" fill="white"/>
<path d="M12.0007 11.3333C14.578 11.3333 16.6673 9.244 16.6673 6.66667C16.6673 4.08934 14.578 2 12.0007 2C9.42332 2 7.33398 4.08934 7.33398 6.66667C7.33398 9.244 9.42332 11.3333 12.0007 11.3333Z" fill="white"/>
</g>
<defs>
<clipPath id="clip0_7166_540">
<rect width="24" height="24" fill="white"/>
</clipPath>
</defs>
</svg>
